<?xml version="1.0" encoding="iso-8859-1"?>
<!-- Generator: Adobe Illustrator 21.1.0, SVG Export Plug-In . SVG Version: 6.00 Build 0)  -->
<svg version="1.1" id="Layer_1" xmlns="http://www.w3.org/2000/svg" xmlns:xlink="http://www.w3.org/1999/xlink" x="0px" y="0px"
	 viewBox="0 0 24 24" enable-background="new 0 0 24 24" xml:space="preserve">
<g>
	<path fill="#303C42" d="M22,8h-1V7c0-1.1030273-0.8969727-2-2-2H9.7070313L7.8535156,3.1464844
		C7.7597656,3.0527344,7.6328125,3,7.5,3H2C0.8969727,3,0,3.8969727,0,5v14c0,0.25,0.0483398,0.4985352,0.144043,0.7382813
		l0.0014648,0.0043945C0.4521484,20.5063477,1.1796875,21,2,21h17c0.8990479,0,1.6767578-0.5999146,1.9177246-1.4634399
		c0.0029297-0.0075684,0.010376-0.012207,0.0129395-0.0199585l2.9707031-8.8984375
		c0.0097656-0.0283203,0.0161133-0.0576172,0.0205078-0.0869141C23.9741211,10.3461914,24,10.171875,24,10
		C24,8.8969727,23.1030273,8,22,8z"/>
	<path fill="#3D82C4" d="M1,5c0-0.5512695,0.4487305-1,1-1h5.2929688l1.8535156,1.8535156C9.2402344,5.9472656,9.3671875,6,9.5,6H19
		c0.5512695,0,1,0.4487305,1,1v1H5C4.0722656,8,3.28125,8.6230469,3.0605469,9.5200195
		c-0.0009766,0.003418-0.0024414,0.0073242-0.003418,0.0107422L1,16.4719849V5z"/>
	<path fill="#7CB342" d="M19,20H3.7333984c0.6709595-0.6644287,1.8079834-1.8056641,3.769043-3.7905273l2.144043,2.144043
		c0.1953125,0.1953125,0.5117188,0.1953125,0.7070313,0s0.1953125-0.5117188,0-0.7070313L10.2070313,17.5l3.7958984-3.7954102
		l5.8609619,5.7723389C19.6920776,19.7909546,19.3702393,20,19,20z"/>
	<path fill="#57C1EF" d="M22.9462891,10.3017578c-0.0068359,0.0224609-0.012207,0.0449219-0.0161133,0.0678711l-2.6938477,8.0698242
		l-5.8852539-5.7958984c-0.1958008-0.1918945-0.5097656-0.190918-0.7045898,0.0029297L9.5,16.7929688l-1.6464844-1.6464844
		C7.7597656,15.0527344,7.6328125,15,7.5,15H7.4985352c-0.1333008,0.0004883-0.2607422,0.0537109-0.3544922,0.1489258
		C5.4381714,16.8765869,2.8973389,19.4372559,2.3081055,20H2c-0.3596802,0-0.675354-0.197876-0.8530884-0.5037231
		l2.8589478-9.6466675c0.0083008-0.0224609,0.0151367-0.0454102,0.0205078-0.0688477C4.1293945,9.3208008,4.5297852,9,5,9h17
		c0.5512695,0,1,0.4487305,1,1C23,10.0913086,22.9829102,10.1870117,22.9462891,10.3017578z"/>
	<circle fill="#303C42" cx="9" cy="12" r="2"/>
	<circle fill="#FFCB29" cx="9" cy="12" r="1"/>
	<linearGradient id="SVGID_1_" gradientUnits="userSpaceOnUse" x1="8.9430389" y1="4.6529694" x2="21.8451595" y2="17.55509">
		<stop  offset="0" style="stop-color:#010101;stop-opacity:0.1"/>
		<stop  offset="1" style="stop-color:#010101;stop-opacity:0"/>
	</linearGradient>
	<path fill="url(#SVGID_1_)" d="M11.4369507,16.2702637L15.166687,20H19c0.3702393,0,0.6920776-0.2090454,0.8638916-0.5230713
		l-5.8609619-5.7723389L11.4369507,16.2702637z M22,9H5C4.7672729,9,4.5522461,9.0795288,4.3813477,9.2146606l6.3485107,6.3484497
		l2.916626-2.916626c0.1948242-0.1938477,0.5087891-0.1948242,0.7045898-0.0029297l5.8852539,5.7958984l2.6938477-8.0698242
		c0.0039063-0.0229492,0.0092773-0.0454102,0.0161133-0.0678711C22.9829102,10.1870117,23,10.0913086,23,10
		C23,9.4487305,22.5512695,9,22,9z"/>
	<path opacity="0.1" fill="#010101" d="M5,7.5c-1.1777344,0-2.1796875,0.8032227-2.4321289,1.9233398L1,15.5v0.9719849l0,0
		l2.0571289-6.9412231c0.0009766-0.003418,0.0024414-0.0073242,0.003418-0.0107422C3.28125,8.6230469,4.0722656,8,5,8h15V7.5H5z"/>
	<linearGradient id="SVGID_2_" gradientUnits="userSpaceOnUse" x1="-1.3587995" y1="7.4706411" x2="21.5853386" y2="18.1696682">
		<stop  offset="0" style="stop-color:#FFFFFF;stop-opacity:0.2"/>
		<stop  offset="1" style="stop-color:#FFFFFF;stop-opacity:0"/>
	</linearGradient>
	<path fill="url(#SVGID_2_)" d="M22,8h-1V7c0-1.1030273-0.8969727-2-2-2H9.7070313L7.8535156,3.1464844
		C7.7597656,3.0527344,7.6328125,3,7.5,3H2C0.8969727,3,0,3.8969727,0,5v14c0,0.25,0.0483398,0.4985352,0.144043,0.7382813
		l0.0014648,0.0043945C0.4521484,20.5063477,1.1796875,21,2,21h17c0.8990479,0,1.6767578-0.5999146,1.9177246-1.4634399
		c0.0029297-0.0075684,0.010376-0.012207,0.0129395-0.0199585l2.9707031-8.8984375
		c0.0097656-0.0283203,0.0161133-0.0576172,0.0205078-0.0869141C23.9741211,10.3461914,24,10.171875,24,10
		C24,8.8969727,23.1030273,8,22,8z"/>
</g>
<g>
</g>
<g>
</g>
<g>
</g>
<g>
</g>
<g>
</g>
<g>
</g>
<g>
</g>
<g>
</g>
<g>
</g>
<g>
</g>
<g>
</g>
<g>
</g>
<g>
</g>
<g>
</g>
<g>
</g>
</svg>
